<mxfile host="Electron" modified="2023-10-03T12:38:16.459Z" agent="Mozilla/5.0 (Windows NT 10.0; Win64; x64) AppleWebKit/537.36 (KHTML, like Gecko) draw.io/22.0.1 Chrome/114.0.5735.289 Electron/25.8.4 Safari/537.36" etag="1mmDUO8aLqfO19EYvi7D" version="22.0.1" type="device">
  <diagram name="Page-1" id="_BAr91nf2BU1CdBqY8Vg">
    <mxGraphModel dx="1418" dy="828" grid="1" gridSize="10" guides="1" tooltips="1" connect="1" arrows="1" fold="1" page="1" pageScale="1" pageWidth="827" pageHeight="1169" math="0" shadow="0">
      <root>
        <mxCell id="0" />
        <mxCell id="1" parent="0" />
        <mxCell id="3fyeK6Al1ABFUcu7wLod-1" value="" style="rounded=0;whiteSpace=wrap;html=1;" vertex="1" parent="1">
          <mxGeometry x="30" y="80" width="1260" height="630" as="geometry" />
        </mxCell>
        <mxCell id="-QA-_m2Z5E1NNeN4uD1D-1" value="«root» Learner" style="swimlane;fontStyle=1;align=center;verticalAlign=top;childLayout=stackLayout;horizontal=1;startSize=26;horizontalStack=0;resizeParent=1;resizeParentMax=0;resizeLast=0;collapsible=1;marginBottom=0;whiteSpace=wrap;html=1;" parent="1" vertex="1">
          <mxGeometry x="60" y="130" width="200" height="78" as="geometry" />
        </mxCell>
        <mxCell id="-QA-_m2Z5E1NNeN4uD1D-2" value="+ name: String" style="text;strokeColor=none;fillColor=none;align=left;verticalAlign=top;spacingLeft=4;spacingRight=4;overflow=hidden;rotatable=0;points=[[0,0.5],[1,0.5]];portConstraint=eastwest;whiteSpace=wrap;html=1;" parent="-QA-_m2Z5E1NNeN4uD1D-1" vertex="1">
          <mxGeometry y="26" width="200" height="26" as="geometry" />
        </mxCell>
        <mxCell id="-QA-_m2Z5E1NNeN4uD1D-5" value="+&amp;nbsp;courses: Set&amp;lt;Course&amp;gt; {unique}" style="text;strokeColor=none;fillColor=none;align=left;verticalAlign=top;spacingLeft=4;spacingRight=4;overflow=hidden;rotatable=0;points=[[0,0.5],[1,0.5]];portConstraint=eastwest;whiteSpace=wrap;html=1;" parent="-QA-_m2Z5E1NNeN4uD1D-1" vertex="1">
          <mxGeometry y="52" width="200" height="26" as="geometry" />
        </mxCell>
        <mxCell id="-QA-_m2Z5E1NNeN4uD1D-9" value="&lt;table class=&quot;simple-table&quot; id=&quot;4be0993a-8cb2-40e5-bdfd-7f6b039907cc&quot;&gt;&lt;tbody&gt;&lt;tr id=&quot;e588f8d5-d057-4c99-b000-b41a2d156928&quot;&gt;&lt;td class=&quot;&quot; id=&quot;KpZ;&quot;&gt;«root» Organizer&lt;/td&gt;&lt;/tr&gt;&lt;/tbody&gt;&lt;/table&gt;" style="swimlane;fontStyle=1;align=center;verticalAlign=top;childLayout=stackLayout;horizontal=1;startSize=26;horizontalStack=0;resizeParent=1;resizeParentMax=0;resizeLast=0;collapsible=1;marginBottom=0;whiteSpace=wrap;html=1;" parent="1" vertex="1">
          <mxGeometry x="520" y="140" width="260" height="78" as="geometry" />
        </mxCell>
        <mxCell id="-QA-_m2Z5E1NNeN4uD1D-10" value="+ name: String" style="text;strokeColor=none;fillColor=none;align=left;verticalAlign=top;spacingLeft=4;spacingRight=4;overflow=hidden;rotatable=0;points=[[0,0.5],[1,0.5]];portConstraint=eastwest;whiteSpace=wrap;html=1;" parent="-QA-_m2Z5E1NNeN4uD1D-9" vertex="1">
          <mxGeometry y="26" width="260" height="26" as="geometry" />
        </mxCell>
        <mxCell id="-QA-_m2Z5E1NNeN4uD1D-11" value="+&amp;nbsp;courses: Set&amp;lt;Course&amp;gt; {unique} " style="text;strokeColor=none;fillColor=none;align=left;verticalAlign=top;spacingLeft=4;spacingRight=4;overflow=hidden;rotatable=0;points=[[0,0.5],[1,0.5]];portConstraint=eastwest;whiteSpace=wrap;html=1;" parent="-QA-_m2Z5E1NNeN4uD1D-9" vertex="1">
          <mxGeometry y="52" width="260" height="26" as="geometry" />
        </mxCell>
        <mxCell id="-QA-_m2Z5E1NNeN4uD1D-18" value="«root» Course" style="swimlane;fontStyle=1;align=center;verticalAlign=top;childLayout=stackLayout;horizontal=1;startSize=26;horizontalStack=0;resizeParent=1;resizeParentMax=0;resizeLast=0;collapsible=1;marginBottom=0;whiteSpace=wrap;html=1;" parent="1" vertex="1">
          <mxGeometry x="560" y="361" width="250" height="104" as="geometry" />
        </mxCell>
        <mxCell id="-QA-_m2Z5E1NNeN4uD1D-19" value="+ name: String" style="text;strokeColor=none;fillColor=none;align=left;verticalAlign=top;spacingLeft=4;spacingRight=4;overflow=hidden;rotatable=0;points=[[0,0.5],[1,0.5]];portConstraint=eastwest;whiteSpace=wrap;html=1;" parent="-QA-_m2Z5E1NNeN4uD1D-18" vertex="1">
          <mxGeometry y="26" width="250" height="26" as="geometry" />
        </mxCell>
        <mxCell id="-QA-_m2Z5E1NNeN4uD1D-22" value="+ topics: Сourses: Set&amp;lt;Course&amp;gt; {unique}" style="text;strokeColor=none;fillColor=none;align=left;verticalAlign=top;spacingLeft=4;spacingRight=4;overflow=hidden;rotatable=0;points=[[0,0.5],[1,0.5]];portConstraint=eastwest;whiteSpace=wrap;html=1;" parent="-QA-_m2Z5E1NNeN4uD1D-18" vertex="1">
          <mxGeometry y="52" width="250" height="26" as="geometry" />
        </mxCell>
        <mxCell id="-QA-_m2Z5E1NNeN4uD1D-23" value="+&amp;nbsp;feedbacks: List&amp;lt;Feedback&amp;gt; [0..*]" style="text;strokeColor=none;fillColor=none;align=left;verticalAlign=top;spacingLeft=4;spacingRight=4;overflow=hidden;rotatable=0;points=[[0,0.5],[1,0.5]];portConstraint=eastwest;whiteSpace=wrap;html=1;" parent="-QA-_m2Z5E1NNeN4uD1D-18" vertex="1">
          <mxGeometry y="78" width="250" height="26" as="geometry" />
        </mxCell>
        <mxCell id="-QA-_m2Z5E1NNeN4uD1D-24" value="&lt;table class=&quot;simple-table&quot; id=&quot;4be0993a-8cb2-40e5-bdfd-7f6b039907cc&quot;&gt;&lt;tbody&gt;&lt;tr id=&quot;23691669-71e0-4738-807a-c3c6f39562a6&quot;&gt;&lt;td class=&quot;&quot; id=&quot;KpZ;&quot;&gt;«entity» Topic&lt;/td&gt;&lt;/tr&gt;&lt;/tbody&gt;&lt;/table&gt;" style="swimlane;fontStyle=1;align=center;verticalAlign=top;childLayout=stackLayout;horizontal=1;startSize=26;horizontalStack=0;resizeParent=1;resizeParentMax=0;resizeLast=0;collapsible=1;marginBottom=0;whiteSpace=wrap;html=1;" parent="1" vertex="1">
          <mxGeometry x="240" y="400" width="200" height="52" as="geometry" />
        </mxCell>
        <mxCell id="-QA-_m2Z5E1NNeN4uD1D-25" value="+&amp;nbsp;lessons: Set&amp;lt;Course&amp;gt; {unique}" style="text;strokeColor=none;fillColor=none;align=left;verticalAlign=top;spacingLeft=4;spacingRight=4;overflow=hidden;rotatable=0;points=[[0,0.5],[1,0.5]];portConstraint=eastwest;whiteSpace=wrap;html=1;" parent="-QA-_m2Z5E1NNeN4uD1D-24" vertex="1">
          <mxGeometry y="26" width="200" height="26" as="geometry" />
        </mxCell>
        <mxCell id="-QA-_m2Z5E1NNeN4uD1D-28" value="«entity» Lesson" style="swimlane;fontStyle=1;align=center;verticalAlign=top;childLayout=stackLayout;horizontal=1;startSize=26;horizontalStack=0;resizeParent=1;resizeParentMax=0;resizeLast=0;collapsible=1;marginBottom=0;whiteSpace=wrap;html=1;" parent="1" vertex="1">
          <mxGeometry x="212.5" y="560" width="255" height="78" as="geometry" />
        </mxCell>
        <mxCell id="-QA-_m2Z5E1NNeN4uD1D-29" value="+&amp;nbsp;materials: Set&amp;lt;LessonMaterial&amp;gt; {unique}" style="text;strokeColor=none;fillColor=none;align=left;verticalAlign=top;spacingLeft=4;spacingRight=4;overflow=hidden;rotatable=0;points=[[0,0.5],[1,0.5]];portConstraint=eastwest;whiteSpace=wrap;html=1;" parent="-QA-_m2Z5E1NNeN4uD1D-28" vertex="1">
          <mxGeometry y="26" width="255" height="26" as="geometry" />
        </mxCell>
        <mxCell id="-QA-_m2Z5E1NNeN4uD1D-32" value="+&amp;nbsp;tests: Set&amp;lt;Test&amp;gt; {unique}" style="text;strokeColor=none;fillColor=none;align=left;verticalAlign=top;spacingLeft=4;spacingRight=4;overflow=hidden;rotatable=0;points=[[0,0.5],[1,0.5]];portConstraint=eastwest;whiteSpace=wrap;html=1;" parent="-QA-_m2Z5E1NNeN4uD1D-28" vertex="1">
          <mxGeometry y="52" width="255" height="26" as="geometry" />
        </mxCell>
        <mxCell id="-QA-_m2Z5E1NNeN4uD1D-33" value="&amp;nbsp;«entity» Feedback" style="swimlane;fontStyle=1;align=center;verticalAlign=top;childLayout=stackLayout;horizontal=1;startSize=26;horizontalStack=0;resizeParent=1;resizeParentMax=0;resizeLast=0;collapsible=1;marginBottom=0;whiteSpace=wrap;html=1;" parent="1" vertex="1">
          <mxGeometry x="830" y="140" width="270" height="78" as="geometry" />
        </mxCell>
        <mxCell id="-QA-_m2Z5E1NNeN4uD1D-34" value="+&amp;nbsp;learner: Learner" style="text;strokeColor=none;fillColor=none;align=left;verticalAlign=top;spacingLeft=4;spacingRight=4;overflow=hidden;rotatable=0;points=[[0,0.5],[1,0.5]];portConstraint=eastwest;whiteSpace=wrap;html=1;" parent="-QA-_m2Z5E1NNeN4uD1D-33" vertex="1">
          <mxGeometry y="26" width="270" height="26" as="geometry" />
        </mxCell>
        <mxCell id="-QA-_m2Z5E1NNeN4uD1D-35" value="+&amp;nbsp;text: String" style="text;strokeColor=none;fillColor=none;align=left;verticalAlign=top;spacingLeft=4;spacingRight=4;overflow=hidden;rotatable=0;points=[[0,0.5],[1,0.5]];portConstraint=eastwest;whiteSpace=wrap;html=1;" parent="-QA-_m2Z5E1NNeN4uD1D-33" vertex="1">
          <mxGeometry y="52" width="270" height="26" as="geometry" />
        </mxCell>
        <mxCell id="-QA-_m2Z5E1NNeN4uD1D-38" value="«entity» Test" style="swimlane;fontStyle=1;align=center;verticalAlign=top;childLayout=stackLayout;horizontal=1;startSize=26;horizontalStack=0;resizeParent=1;resizeParentMax=0;resizeLast=0;collapsible=1;marginBottom=0;whiteSpace=wrap;html=1;" parent="1" vertex="1">
          <mxGeometry x="580" y="582" width="230" height="50" as="geometry" />
        </mxCell>
        <mxCell id="-QA-_m2Z5E1NNeN4uD1D-39" value="+ questions: List&amp;lt;Questions&amp;gt; [0..*]" style="text;strokeColor=none;fillColor=none;align=left;verticalAlign=top;spacingLeft=4;spacingRight=4;overflow=hidden;rotatable=0;points=[[0,0.5],[1,0.5]];portConstraint=eastwest;whiteSpace=wrap;html=1;" parent="-QA-_m2Z5E1NNeN4uD1D-38" vertex="1">
          <mxGeometry y="26" width="230" height="24" as="geometry" />
        </mxCell>
        <mxCell id="-QA-_m2Z5E1NNeN4uD1D-43" value="«entity» Statistics" style="swimlane;fontStyle=1;align=center;verticalAlign=top;childLayout=stackLayout;horizontal=1;startSize=26;horizontalStack=0;resizeParent=1;resizeParentMax=0;resizeLast=0;collapsible=1;marginBottom=0;whiteSpace=wrap;html=1;" parent="1" vertex="1">
          <mxGeometry x="930" y="365" width="270" height="78" as="geometry" />
        </mxCell>
        <mxCell id="-QA-_m2Z5E1NNeN4uD1D-44" value="+ learner: Learner" style="text;strokeColor=none;fillColor=none;align=left;verticalAlign=top;spacingLeft=4;spacingRight=4;overflow=hidden;rotatable=0;points=[[0,0.5],[1,0.5]];portConstraint=eastwest;whiteSpace=wrap;html=1;" parent="-QA-_m2Z5E1NNeN4uD1D-43" vertex="1">
          <mxGeometry y="26" width="270" height="26" as="geometry" />
        </mxCell>
        <mxCell id="-QA-_m2Z5E1NNeN4uD1D-51" value="+ course: Course" style="text;strokeColor=none;fillColor=none;align=left;verticalAlign=top;spacingLeft=4;spacingRight=4;overflow=hidden;rotatable=0;points=[[0,0.5],[1,0.5]];portConstraint=eastwest;whiteSpace=wrap;html=1;" parent="-QA-_m2Z5E1NNeN4uD1D-43" vertex="1">
          <mxGeometry y="52" width="270" height="26" as="geometry" />
        </mxCell>
        <mxCell id="-QA-_m2Z5E1NNeN4uD1D-52" value="«entity» Certificate" style="swimlane;fontStyle=1;align=center;verticalAlign=top;childLayout=stackLayout;horizontal=1;startSize=26;horizontalStack=0;resizeParent=1;resizeParentMax=0;resizeLast=0;collapsible=1;marginBottom=0;whiteSpace=wrap;html=1;" parent="1" vertex="1">
          <mxGeometry x="930" y="568" width="270" height="78" as="geometry" />
        </mxCell>
        <mxCell id="-QA-_m2Z5E1NNeN4uD1D-53" value="+ Learner: learner" style="text;strokeColor=none;fillColor=none;align=left;verticalAlign=top;spacingLeft=4;spacingRight=4;overflow=hidden;rotatable=0;points=[[0,0.5],[1,0.5]];portConstraint=eastwest;whiteSpace=wrap;html=1;" parent="-QA-_m2Z5E1NNeN4uD1D-52" vertex="1">
          <mxGeometry y="26" width="270" height="26" as="geometry" />
        </mxCell>
        <mxCell id="-QA-_m2Z5E1NNeN4uD1D-56" value="+ Course: course" style="text;strokeColor=none;fillColor=none;align=left;verticalAlign=top;spacingLeft=4;spacingRight=4;overflow=hidden;rotatable=0;points=[[0,0.5],[1,0.5]];portConstraint=eastwest;whiteSpace=wrap;html=1;" parent="-QA-_m2Z5E1NNeN4uD1D-52" vertex="1">
          <mxGeometry y="52" width="270" height="26" as="geometry" />
        </mxCell>
        <mxCell id="-QA-_m2Z5E1NNeN4uD1D-59" value="" style="endArrow=none;html=1;edgeStyle=orthogonalEdgeStyle;rounded=0;exitX=0.45;exitY=1.077;exitDx=0;exitDy=0;exitPerimeter=0;" parent="1" source="-QA-_m2Z5E1NNeN4uD1D-5" edge="1">
          <mxGeometry relative="1" as="geometry">
            <mxPoint x="150" y="220" as="sourcePoint" />
            <mxPoint x="580" y="360" as="targetPoint" />
            <Array as="points">
              <mxPoint x="150" y="260" />
              <mxPoint x="580" y="260" />
            </Array>
          </mxGeometry>
        </mxCell>
        <mxCell id="-QA-_m2Z5E1NNeN4uD1D-61" value="&lt;font style=&quot;font-size: 17px;&quot;&gt;0..*&lt;/font&gt;" style="edgeLabel;resizable=0;html=1;align=right;verticalAlign=bottom;fontStyle=1" parent="-QA-_m2Z5E1NNeN4uD1D-59" connectable="0" vertex="1">
          <mxGeometry x="1" relative="1" as="geometry">
            <mxPoint y="1" as="offset" />
          </mxGeometry>
        </mxCell>
        <mxCell id="-QA-_m2Z5E1NNeN4uD1D-62" value="&lt;font style=&quot;font-size: 17px;&quot;&gt;0..*&lt;/font&gt;" style="edgeLabel;resizable=0;html=1;align=right;verticalAlign=bottom;fontStyle=1" parent="1" connectable="0" vertex="1">
          <mxGeometry x="139.99993195982893" y="239.99570067864497" as="geometry" />
        </mxCell>
        <mxCell id="-QA-_m2Z5E1NNeN4uD1D-65" value="" style="endArrow=none;html=1;edgeStyle=orthogonalEdgeStyle;rounded=0;" parent="1" edge="1">
          <mxGeometry relative="1" as="geometry">
            <mxPoint x="650" y="220" as="sourcePoint" />
            <mxPoint x="650" y="360" as="targetPoint" />
            <Array as="points">
              <mxPoint x="650" y="220" />
            </Array>
          </mxGeometry>
        </mxCell>
        <mxCell id="-QA-_m2Z5E1NNeN4uD1D-66" value="&lt;font style=&quot;font-size: 17px;&quot;&gt;0..*&lt;/font&gt;" style="edgeLabel;resizable=0;html=1;align=right;verticalAlign=bottom;fontStyle=1" parent="-QA-_m2Z5E1NNeN4uD1D-65" connectable="0" vertex="1">
          <mxGeometry x="1" relative="1" as="geometry">
            <mxPoint y="1" as="offset" />
          </mxGeometry>
        </mxCell>
        <mxCell id="-QA-_m2Z5E1NNeN4uD1D-74" value="" style="endArrow=none;html=1;edgeStyle=orthogonalEdgeStyle;rounded=0;exitX=0.5;exitY=0;exitDx=0;exitDy=0;" parent="1" source="-QA-_m2Z5E1NNeN4uD1D-18" edge="1">
          <mxGeometry relative="1" as="geometry">
            <mxPoint x="730" y="320" as="sourcePoint" />
            <mxPoint x="970" y="220" as="targetPoint" />
          </mxGeometry>
        </mxCell>
        <mxCell id="-QA-_m2Z5E1NNeN4uD1D-77" value="&lt;font style=&quot;font-size: 17px;&quot;&gt;0..1&lt;/font&gt;" style="edgeLabel;resizable=0;html=1;align=right;verticalAlign=bottom;fontStyle=1" parent="1" connectable="0" vertex="1">
          <mxGeometry x="949.9999319598289" y="709.995700678645" as="geometry">
            <mxPoint x="-22" y="-89" as="offset" />
          </mxGeometry>
        </mxCell>
        <mxCell id="-QA-_m2Z5E1NNeN4uD1D-78" value="&lt;font style=&quot;font-size: 17px;&quot;&gt;0..*&lt;/font&gt;" style="edgeLabel;resizable=0;html=1;align=right;verticalAlign=bottom;fontStyle=1" parent="1" connectable="0" vertex="1">
          <mxGeometry x="1000" y="250" as="geometry" />
        </mxCell>
        <mxCell id="sJjAoyrnurzyOcNZZube-1" value="" style="endArrow=none;html=1;edgeStyle=orthogonalEdgeStyle;rounded=0;exitX=1;exitY=0.5;exitDx=0;exitDy=0;entryX=0;entryY=1.077;entryDx=0;entryDy=0;entryPerimeter=0;" parent="1" source="-QA-_m2Z5E1NNeN4uD1D-22" target="-QA-_m2Z5E1NNeN4uD1D-56" edge="1">
          <mxGeometry relative="1" as="geometry">
            <mxPoint x="810" y="630" as="sourcePoint" />
            <mxPoint x="920" y="630" as="targetPoint" />
            <Array as="points">
              <mxPoint x="810" y="450" />
              <mxPoint x="870" y="450" />
              <mxPoint x="870" y="620" />
              <mxPoint x="930" y="620" />
            </Array>
          </mxGeometry>
        </mxCell>
        <mxCell id="sJjAoyrnurzyOcNZZube-5" value="&lt;font style=&quot;font-size: 17px;&quot;&gt;1&lt;/font&gt;" style="edgeLabel;resizable=0;html=1;align=right;verticalAlign=bottom;fontStyle=1" parent="1" connectable="0" vertex="1">
          <mxGeometry x="827" y="480" as="geometry" />
        </mxCell>
        <mxCell id="sJjAoyrnurzyOcNZZube-6" value="" style="endArrow=none;html=1;edgeStyle=orthogonalEdgeStyle;rounded=0;" parent="1" edge="1">
          <mxGeometry relative="1" as="geometry">
            <mxPoint x="810" y="420" as="sourcePoint" />
            <mxPoint x="930" y="420" as="targetPoint" />
            <Array as="points">
              <mxPoint x="810" y="410" />
              <mxPoint x="930" y="410" />
            </Array>
          </mxGeometry>
        </mxCell>
        <mxCell id="sJjAoyrnurzyOcNZZube-9" value="&lt;font style=&quot;font-size: 17px;&quot;&gt;1&lt;/font&gt;" style="edgeLabel;resizable=0;html=1;align=right;verticalAlign=bottom;fontStyle=1" parent="1" connectable="0" vertex="1">
          <mxGeometry x="820" y="413" as="geometry">
            <mxPoint x="5" y="-8" as="offset" />
          </mxGeometry>
        </mxCell>
        <mxCell id="sJjAoyrnurzyOcNZZube-10" value="&lt;font style=&quot;font-size: 17px;&quot;&gt;1&lt;/font&gt;" style="edgeLabel;resizable=0;html=1;align=right;verticalAlign=bottom;fontStyle=1" parent="1" connectable="0" vertex="1">
          <mxGeometry x="920" y="413" as="geometry">
            <mxPoint x="4" y="-5" as="offset" />
          </mxGeometry>
        </mxCell>
        <mxCell id="sJjAoyrnurzyOcNZZube-11" value="&lt;font style=&quot;font-size: 17px;&quot;&gt;1&lt;/font&gt;" style="edgeLabel;resizable=0;html=1;align=right;verticalAlign=bottom;fontStyle=1" parent="1" connectable="0" vertex="1">
          <mxGeometry x="700" y="361" as="geometry" />
        </mxCell>
        <mxCell id="sJjAoyrnurzyOcNZZube-12" value="&lt;font style=&quot;font-size: 17px;&quot;&gt;1&lt;/font&gt;" style="edgeLabel;resizable=0;html=1;align=right;verticalAlign=bottom;fontStyle=1" parent="1" connectable="0" vertex="1">
          <mxGeometry x="640" y="250" as="geometry" />
        </mxCell>
        <mxCell id="sJjAoyrnurzyOcNZZube-13" value="" style="endArrow=diamondThin;endFill=1;endSize=24;html=1;rounded=0;" parent="1" edge="1">
          <mxGeometry width="160" relative="1" as="geometry">
            <mxPoint x="580" y="606.92" as="sourcePoint" />
            <mxPoint x="467.5" y="606.5" as="targetPoint" />
          </mxGeometry>
        </mxCell>
        <mxCell id="sJjAoyrnurzyOcNZZube-15" value="" style="endArrow=diamondThin;endFill=1;endSize=24;html=1;rounded=0;entryX=0.495;entryY=1.192;entryDx=0;entryDy=0;entryPerimeter=0;" parent="1" target="-QA-_m2Z5E1NNeN4uD1D-25" edge="1">
          <mxGeometry width="160" relative="1" as="geometry">
            <mxPoint x="340" y="560" as="sourcePoint" />
            <mxPoint x="340" y="460" as="targetPoint" />
          </mxGeometry>
        </mxCell>
        <mxCell id="sJjAoyrnurzyOcNZZube-14" value="" style="endArrow=diamondThin;endFill=1;endSize=24;html=1;rounded=0;entryX=0;entryY=0.5;entryDx=0;entryDy=0;" parent="1" target="-QA-_m2Z5E1NNeN4uD1D-22" edge="1">
          <mxGeometry width="160" relative="1" as="geometry">
            <mxPoint x="441" y="426" as="sourcePoint" />
            <mxPoint x="560" y="450" as="targetPoint" />
          </mxGeometry>
        </mxCell>
        <mxCell id="P-heUZ1CWl4BYyPMROG9-3" value="+test" style="text;html=1;align=center;verticalAlign=middle;resizable=0;points=[];autosize=1;strokeColor=none;fillColor=none;" parent="1" vertex="1">
          <mxGeometry x="510" y="582" width="50" height="30" as="geometry" />
        </mxCell>
        <mxCell id="P-heUZ1CWl4BYyPMROG9-4" value="+lessons [1..*]" style="text;html=1;align=center;verticalAlign=middle;resizable=0;points=[];autosize=1;strokeColor=none;fillColor=none;" parent="1" vertex="1">
          <mxGeometry x="340" y="520" width="100" height="30" as="geometry" />
        </mxCell>
        <mxCell id="P-heUZ1CWl4BYyPMROG9-5" value="+topics [1..*]" style="text;html=1;align=center;verticalAlign=middle;resizable=0;points=[];autosize=1;strokeColor=none;fillColor=none;" parent="1" vertex="1">
          <mxGeometry x="440" y="400" width="90" height="30" as="geometry" />
        </mxCell>
        <mxCell id="P-heUZ1CWl4BYyPMROG9-6" value="+statistic" style="text;html=1;align=center;verticalAlign=middle;resizable=0;points=[];autosize=1;strokeColor=none;fillColor=none;" parent="1" vertex="1">
          <mxGeometry x="840" y="383" width="70" height="30" as="geometry" />
        </mxCell>
        <mxCell id="P-heUZ1CWl4BYyPMROG9-8" value="+feedbacks[0..*]" style="text;html=1;align=center;verticalAlign=middle;resizable=0;points=[];autosize=1;strokeColor=none;fillColor=none;" parent="1" vertex="1">
          <mxGeometry x="812" y="260" width="110" height="30" as="geometry" />
        </mxCell>
        <mxCell id="P-heUZ1CWl4BYyPMROG9-10" value="+manage courses" style="text;html=1;align=center;verticalAlign=middle;resizable=0;points=[];autosize=1;strokeColor=none;fillColor=none;" parent="1" vertex="1">
          <mxGeometry x="640" y="250" width="120" height="30" as="geometry" />
        </mxCell>
        <mxCell id="P-heUZ1CWl4BYyPMROG9-11" value="+study at" style="text;html=1;align=center;verticalAlign=middle;resizable=0;points=[];autosize=1;strokeColor=none;fillColor=none;" parent="1" vertex="1">
          <mxGeometry x="315" y="235" width="70" height="30" as="geometry" />
        </mxCell>
        <mxCell id="P-heUZ1CWl4BYyPMROG9-12" value="+certificate" style="text;html=1;align=center;verticalAlign=middle;resizable=0;points=[];autosize=1;strokeColor=none;fillColor=none;" parent="1" vertex="1">
          <mxGeometry x="870" y="500" width="80" height="30" as="geometry" />
        </mxCell>
      </root>
    </mxGraphModel>
  </diagram>
</mxfile>
